<?xml version="1.0" encoding="utf-8"?>
<!-- Generator: Adobe Illustrator 18.1.1, SVG Export Plug-In . SVG Version: 6.00 Build 0)  -->
<svg version="1.1" id="Shape_2_1_" xmlns="http://www.w3.org/2000/svg" xmlns:xlink="http://www.w3.org/1999/xlink" x="0px" y="0px"
	 viewBox="0 0 60 67" enable-background="new 0 0 60 67" xml:space="preserve">
<g id="Shape_2">
	<g>
		<path fill="#3D94BA" d="M51.6,1.7c-1.5,0-42.5,0-44.3,0C3.6,1.7,2.5,3.6,3,5.9l13.9,56.9c0.1,0.5,0.8,1.8,2.9,1.8h20.5
			c1.9,0,2.7-1.4,2.8-1.9L57,5.9C57.5,3.6,57.7,1.7,51.6,1.7z M47.4,23.5l-4.5,18.6c-0.1,0.2-0.5,0.4-0.9,0.4H17.8
			c-0.4,0-0.8-0.2-0.9-0.4l-4.3-18.6c-0.4-0.9-0.1-1.7,0.8-1.7h33.3C47.5,21.8,47.9,22.6,47.4,23.5z"/>
	</g>
</g>
</svg>
